<svg xmlns="http://www.w3.org/2000/svg" width="720" height="430" viewBox="0 0 720 430" font-family="system-ui, sans-serif">
<rect width="720" height="430" fill="#fcfcfb"/>
<text x="64" y="24" font-size="15" font-weight="600" fill="#0b0b0b">Accuracy vs verification cost — SROIE receipts (50 docs / 200 fields)</text>
<text x="64" y="42" font-size="12" fill="#52514e">One point per model at the default threshold. Verification spend adapts to model quality.</text>
<line x1="64" y1="382.0" x2="696" y2="382.0" stroke="#e1e0d9" stroke-width="1"/>
<text x="56" y="386.0" font-size="11" fill="#898781" text-anchor="end">0.00</text>
<line x1="64" y1="300.5" x2="696" y2="300.5" stroke="#e1e0d9" stroke-width="1"/>
<text x="56" y="304.5" font-size="11" fill="#898781" text-anchor="end">0.25</text>
<line x1="64" y1="219.0" x2="696" y2="219.0" stroke="#e1e0d9" stroke-width="1"/>
<text x="56" y="223.0" font-size="11" fill="#898781" text-anchor="end">0.50</text>
<line x1="64" y1="137.5" x2="696" y2="137.5" stroke="#e1e0d9" stroke-width="1"/>
<text x="56" y="141.5" font-size="11" fill="#898781" text-anchor="end">0.75</text>
<line x1="64" y1="56.0" x2="696" y2="56.0" stroke="#e1e0d9" stroke-width="1"/>
<text x="56" y="60.0" font-size="11" fill="#898781" text-anchor="end">1.00</text>
<text x="64.0" y="400" font-size="11" fill="#898781" text-anchor="middle">0</text>
<text x="159.8" y="400" font-size="11" fill="#898781" text-anchor="middle">50</text>
<text x="255.5" y="400" font-size="11" fill="#898781" text-anchor="middle">100</text>
<text x="351.3" y="400" font-size="11" fill="#898781" text-anchor="middle">150</text>
<text x="447.0" y="400" font-size="11" fill="#898781" text-anchor="middle">200</text>
<text x="542.8" y="400" font-size="11" fill="#898781" text-anchor="middle">250</text>
<text x="638.5" y="400" font-size="11" fill="#898781" text-anchor="middle">300</text>
<line x1="64" y1="382" x2="696" y2="382" stroke="#c3c2b7" stroke-width="1"/>
<text x="380.0" y="420" font-size="12" fill="#52514e" text-anchor="middle">LLM calls (50 docs)</text>
<text x="16" y="219.0" font-size="12" fill="#52514e" text-anchor="middle" transform="rotate(-90 16 219.0)">final accuracy</text>
<line x1="638.5" y1="56" x2="638.5" y2="382" stroke="#c3c2b7" stroke-width="1" stroke-dasharray="4 4"/>
<text x="632.5" y="68" font-size="11" fill="#898781" text-anchor="end">verify-everything cost</text>
<circle cx="288.1" cy="103.3" r="5" fill="#2a78d6" stroke="#fcfcfb" stroke-width="2"/>
<text x="300.1" y="91.3" font-size="12" font-weight="600" fill="#0b0b0b" text-anchor="start">qwen2.5:3b</text>
<text x="300.1" y="106.3" font-size="11" fill="#52514e" text-anchor="start">acc 0.855 · 117 calls (61% saved)</text>
<circle cx="314.9" cy="144.0" r="5" fill="#1baf7a" stroke="#fcfcfb" stroke-width="2"/>
<text x="302.9" y="132.0" font-size="12" font-weight="600" fill="#0b0b0b" text-anchor="end">qwen2.5:1.5b</text>
<text x="302.9" y="147.0" font-size="11" fill="#52514e" text-anchor="end">acc 0.730 · 131 calls (56% saved)</text>
<circle cx="638.5" cy="380.4" r="5" fill="#eda100" stroke="#fcfcfb" stroke-width="2"/>
<text x="626.5" y="368.4" font-size="12" font-weight="600" fill="#0b0b0b" text-anchor="end">tinyllama-1.1B</text>
<text x="626.5" y="383.4" font-size="11" fill="#52514e" text-anchor="end">acc 0.005 · 300 calls (0% saved)</text>
<circle cx="72" cy="66" r="5" fill="#2a78d6"/>
<text x="84" y="70" font-size="12" fill="#52514e">qwen2.5:3b</text>
<circle cx="72" cy="84" r="5" fill="#1baf7a"/>
<text x="84" y="88" font-size="12" fill="#52514e">qwen2.5:1.5b</text>
<circle cx="72" cy="102" r="5" fill="#eda100"/>
<text x="84" y="106" font-size="12" fill="#52514e">tinyllama-1.1B</text>
</svg>