<svg xmlns="http://www.w3.org/2000/svg" width="720" height="430" viewBox="0 0 720 430" font-family="system-ui, sans-serif">
<rect width="720" height="430" fill="#fcfcfb"/>
<text x="64" y="24" font-size="15" font-weight="600" fill="#0b0b0b">Accuracy vs verification cost — SROIE receipts (15 docs / 60 fields)</text>
<text x="64" y="42" font-size="12" fill="#52514e">Each point: one disagreement threshold. Verification spend adapts to model quality.</text>
<line x1="64" y1="382.0" x2="696" y2="382.0" stroke="#e1e0d9" stroke-width="1"/>
<text x="56" y="386.0" font-size="11" fill="#898781" text-anchor="end">0.00</text>
<line x1="64" y1="300.5" x2="696" y2="300.5" stroke="#e1e0d9" stroke-width="1"/>
<text x="56" y="304.5" font-size="11" fill="#898781" text-anchor="end">0.25</text>
<line x1="64" y1="219.0" x2="696" y2="219.0" stroke="#e1e0d9" stroke-width="1"/>
<text x="56" y="223.0" font-size="11" fill="#898781" text-anchor="end">0.50</text>
<line x1="64" y1="137.5" x2="696" y2="137.5" stroke="#e1e0d9" stroke-width="1"/>
<text x="56" y="141.5" font-size="11" fill="#898781" text-anchor="end">0.75</text>
<line x1="64" y1="56.0" x2="696" y2="56.0" stroke="#e1e0d9" stroke-width="1"/>
<text x="56" y="60.0" font-size="11" fill="#898781" text-anchor="end">1.00</text>
<text x="64.0" y="400" font-size="11" fill="#898781" text-anchor="middle">0</text>
<text x="158.8" y="400" font-size="11" fill="#898781" text-anchor="middle">15</text>
<text x="253.6" y="400" font-size="11" fill="#898781" text-anchor="middle">30</text>
<text x="348.4" y="400" font-size="11" fill="#898781" text-anchor="middle">45</text>
<text x="443.2" y="400" font-size="11" fill="#898781" text-anchor="middle">60</text>
<text x="538.0" y="400" font-size="11" fill="#898781" text-anchor="middle">75</text>
<text x="632.8" y="400" font-size="11" fill="#898781" text-anchor="middle">90</text>
<line x1="64" y1="382" x2="696" y2="382" stroke="#c3c2b7" stroke-width="1"/>
<text x="380.0" y="420" font-size="12" fill="#52514e" text-anchor="middle">LLM calls (15 docs)</text>
<text x="16" y="219.0" font-size="12" fill="#52514e" text-anchor="middle" transform="rotate(-90 16 219.0)">final accuracy</text>
<line x1="632.8" y1="56" x2="632.8" y2="382" stroke="#c3c2b7" stroke-width="1" stroke-dasharray="4 4"/>
<text x="626.8" y="68" font-size="11" fill="#898781" text-anchor="end">verify-everything cost</text>
<circle cx="304.2" cy="110.4" r="5" fill="#2a78d6" stroke="#fcfcfb" stroke-width="2"/>
<text x="316.2" y="124.4" font-size="11" font-weight="400" fill="#52514e" text-anchor="start">t=0.3 · acc 0.833 · 38 calls</text>
<circle cx="285.2" cy="104.9" r="5" fill="#2a78d6" stroke="#fcfcfb" stroke-width="2"/>
<text x="273.2" y="108.9" font-size="11" font-weight="400" fill="#52514e" text-anchor="end">t≥0.5 · acc 0.850 · 35 calls</text>
<text x="273.2" y="90.9" font-size="12" font-weight="600" fill="#0b0b0b" text-anchor="end">qwen2.5:3b</text>
<circle cx="632.8" cy="360.2" r="5" fill="#1baf7a" stroke="#fcfcfb" stroke-width="2"/>
<text x="620.8" y="350.2" font-size="11" font-weight="400" fill="#52514e" text-anchor="end">all thresholds · acc 0.067 · 90 calls</text>
<text x="620.8" y="334.2" font-size="12" font-weight="600" fill="#0b0b0b" text-anchor="end">tinyllama-1.1B</text>
<circle cx="72" cy="66" r="5" fill="#2a78d6"/>
<text x="84" y="70" font-size="12" fill="#52514e">qwen2.5:3b</text>
<circle cx="72" cy="84" r="5" fill="#1baf7a"/>
<text x="84" y="88" font-size="12" fill="#52514e">tinyllama-1.1B</text>
</svg>